{"title":"NikitA - Avocado [Explicit] 720p [Sbyky]","uid":10914117,"size":34580377,"categoryP":"video","categoryS":"music_videos","magnet":"?xt=urn:btih:2fdd81d1fb89c171058bc1fe6ea48f38711e195f&amp;dn=NikitA+-+Avocado+%5BExplicit%5D+720p+%5BSbyky%5D&amp;tr=udp%3A%2F%2Ftracker.openbittorrent.com%3A80&amp;tr=udp%3A%2F%2Fopen.demonii.com%3A1337&amp;tr=udp%3A%2F%2Ftracker.coppersurfer.tk%3A6969&amp;tr=udp%3A%2F%2Fexodus.desync.com%3A6969","seeders":1,"leechers":0,"uploader":"Sbyky","files":1,"time":1409287869,"description":"\n\nGeneral\nComplete name                            : NikitA - Avocado [Explicit] 720p [Sbyky].mp4\nFormat                                   : MPEG-4\nFormat profile                           : Base Media\nCodec ID                                 : isom\nFile size                                : 33.0 MiB\nDuration                                 : 3mn 3s\nOverall bit rate mode                    : Variable\nOverall bit rate                         : 1 509 Kbps\nEncoded date                             : UTC 2014-01-07 00:28:45\nTagged date                              : UTC 2014-01-07 00:28:45\n\nVideo\nID                                       : 1\nFormat                                   : AVC\nFormat/Info                              : Advanced Video Codec\nFormat profile                           : &lt;a class=&quot;__cf_email__&quot; href=&quot;/cdn-cgi/l/email-protection&quot; data-cfemail=&quot;501d31393e101c637e61&quot;&gt;[email&amp;#160;protected]&lt;/a&gt;&lt;script cf-hash='f9e31' type=&quot;text/javascript&quot;&gt;\n/* &lt;![CDATA[ */!function(){try{var t=&quot;currentScript&quot;in document?document.currentScript:function(){for(var t=document.getElementsByTagName(&quot;script&quot;),e=t.length;e--;)if(t[e].getAttribute(&quot;cf-hash&quot;))return t[e]}();if(t&amp;&amp;t.previousSibling){var e,r,n,i,c=t.previousSibling,a=c.getAttribute(&quot;data-cfemail&quot;);if(a){for(e=&quot;&quot;,r=parseInt(a.substr(0,2),16),n=2;a.length-n;n+=2)i=parseInt(a.substr(n,2),16)^r,e+=String.fromCharCode(i);e=document.createTextNode(e),c.parentNode.replaceChild(e,c)}}}catch(u){}}();/* ]]&gt; */&lt;/script&gt;\nFormat settings, CABAC                   : Yes\nFormat settings, ReFrames                : 3 frames\nCodec ID                                 : avc1\nCodec ID/Info                            : Advanced Video Coding\nDuration                                 : 3mn 3s\nBit rate                                 : 1 381 Kbps\nWidth                                    : 1 280 pixels\nHeight                                   : 720 pixels\nDisplay aspect ratio                     : 16:9\nFrame rate mode                          : Constant\nFrame rate                               : 25.000 fps\nColor space                              : YUV\nChroma subsampling                       : 4:2:0\nBit depth                                : 8 bits\nScan type                                : Progressive\nBits/(Pixel*Frame)                       : 0.060\nStream size                              : 30.2 MiB (91%)\nEncoded date                             : UTC 2014-01-07 00:28:45\nTagged date                              : UTC 2014-01-07 00:28:45\n\nAudio\nID                                       : 2\nFormat                                   : AAC\nFormat/Info                              : Advanced Audio Codec\nFormat profile                           : LC\nCodec ID                                 : 40\nDuration                                 : 3mn 3s\nBit rate mode                            : Variable\nBit rate                                 : 126 Kbps\nChannel(s)                               : 2 channels\nChannel positions                        : Front: L R\nSampling rate                            : 44.1 KHz\nCompression mode                         : Lossy\nStream size                              : 2.74 MiB (8%)\nEncoded date                             : UTC 2014-01-07 00:28:04\nTagged date                              : UTC 2014-01-07 00:28:04\n\nShared By Sbyky\n","torrent":{"xt":"urn:btih:2fdd81d1fb89c171058bc1fe6ea48f38711e195f","amp;dn":"NikitA+-+Avocado+%5BExplicit%5D+720p+%5BSbyky%5D","amp;tr":["udp%3A%2F%2Ftracker.openbittorrent.com%3A80","udp%3A%2F%2Fopen.demonii.com%3A1337","udp%3A%2F%2Ftracker.coppersurfer.tk%3A6969","udp%3A%2F%2Fexodus.desync.com%3A6969"],"infoHash":"2fdd81d1fb89c171058bc1fe6ea48f38711e195f","infoHashBuffer":{"type":"Buffer","data":[47,221,129,209,251,137,193,113,5,139,193,254,110,164,143,56,113,30,25,95]},"announce":[],"urlList":[]}}